# xmcd
#
# Track frame offsets:
# 150
# 13288
# 23577
# 35823
# 50105
# 62379
# 72419
# 84835
# 99374
# 112089
# 128501
# 142210
# 152826
# 164868
# 176623
# 188796
# 202940
# 215370
#
# Disc length: 3078 seconds
#
#
# Revision: 2
# Processed by: cddbd v1.5.2PL0 Copyright (c) Steve Scherf et al.
# Submitted via: FreeRIP 2.93 
#
DISCID=030c0412
DTITLE=Various Artist - Rawhide - Country Greats [CD03)
DYEAR=2007
DGENRE=Country
TTITLE0=Kenny Rogers and The First Edition - Ruby Don't Take Your Love To Town
TTITLE1=Willie Nelson - Broken Promises
TTITLE2=Johnny Cash - I Walk The Line
TTITLE3=Frankie Laine - Jezebel
TTITLE4=Conway Twitty (Aka Harold Jenkins) - Crazy Dreams
TTITLE5=Fron Young - Hello Walls
TTITLE6=Jimmie Rodgers - Wating For A Train
TTITLE7=Loretta Lynn - Coalminer's Daughter
TTITLE8=Tex Ritter - I'm Wastin' My Tears On You
TTITLE9=Rick Nelson - Garden Party
TTITLE10=Patti Page - Tennessee Walz
TTITLE11=Hank Locklin - Please Help Me I'm Falling
TTITLE12=Gene Autry - (I've Got Spurs That) Jingle Jangle Jingle
TTITLE13=Barbara Fairchild - You Can't Put The City In A Country Girl
TTITLE14=Hank Williams - Never Again (Will I Knock On Your Door)
TTITLE15=Vic Damone - By The Time I Get To Phoenix
TTITLE16=Roy Acuff - The Progidal Song
TTITLE17=Razzy Bailey - Your Cheatin Heart
EXTD=
EXTT0=
EXTT1=
EXTT2=
EXTT3=
EXTT4=
EXTT5=
EXTT6=
EXTT7=
EXTT8=
EXTT9=
EXTT10=
EXTT11=
EXTT12=
EXTT13=
EXTT14=
EXTT15=
EXTT16=
EXTT17=
PLAYORDER=
